# xmcd CD database file
#
# Track frame offsets:
#	150
#	12602
#	41161
#	56012
#	81723
#	115321
#	142006
#	163061
#	184887
#	205441
#	234571
#	255641
#	279856
#
# Disc length: 3946 seconds
#
# Revision: 0
# Processed by: cddbd v1.5.1PL0 Copyright (c) Steve Scherf et al.
# Submitted via: CDex 1.51
#
DISCID=c80f680d
DTITLE=Усадьба Джаз - Усадьба Джаз 2005 CD
DYEAR=2005
DGENRE=Jazz
TTITLE0=Несколько возможностей использования квазицитат - А. Айги и 4'33
TTITLE1=Песнь увядших цветов - Н. Левиновкий
TTITLE2=Carnival - А. Шилкопер
TTITLE3=I will come as a snow - Нино Катамадзе and Insight
TTITLE4=Hot pepper blues - Н. Пташка
TTITLE5=Шотландская сюита - В. Горский
TTITLE6=Day Dream - Т. Оганесян и трио И. Бриля
TTITLE7=Dance With Crocodile - А. Кондаков и Brazil All Stars
TTITLE8=Liar - "The Beuds" Леры Гехнер
TTITLE9=Суровый взгляд Джо - А. Козлов и "Арсенал"
TTITLE10=Caravan - С. Манукян и О. Юданов 
TTITLE11=Durga - Safety Magic
TTITLE12=Пять Сигарет - The Optimystica Orchestra
EXTD=YEAR: 2005
EXTT0=
EXTT1=
EXTT2=
EXTT3=
EXTT4=
EXTT5=
EXTT6=
EXTT7=
EXTT8=
EXTT9=
EXTT10=
EXTT11=
EXTT12=
PLAYORDER=
